<svg xmlns="http://www.w3.org/2000/svg" width="487" height="750" fill="none" viewBox="0 0 487 750">
  <g filter="url(#a)">
    <mask id="b" fill="#fff">
      <path d="M153.147 77.497a8.14 8.14 0 0 0-7.983 6.38L77.708 382.364a8.145 8.145 0 0 0 1.591 6.913 8.14 8.14 0 0 0 6.39 3.074h69.7c8.755 0 16.803 4.005 22.082 10.988 5.279 6.984 6.939 15.822 4.55 24.243l-66.649 235.126c-1.707 6.024 2.769 8.821 4.181 9.534 1.411.715 6.317 2.658 10.156-2.287L407.753 311.71c2.824-3.638 1.56-7.238.885-8.616-.677-1.378-2.744-4.583-7.35-4.583H313.21c-10.17 0-19.205-5.3-24.165-14.178-4.963-8.879-4.742-19.351.588-28.011L392.002 89.97c2.273-3.69.881-7.02.178-8.28-.706-1.26-2.812-4.193-7.147-4.193H153.147Zm-29.591 615.279c-4.269 0-8.631-1.023-12.801-3.132-12.182-6.161-17.865-19.119-14.143-32.253l66.649-235.125a8.107 8.107 0 0 0-1.345-7.165 8.11 8.11 0 0 0-6.527-3.25h-69.7c-8.46 0-16.34-3.79-21.622-10.4-5.282-6.608-7.242-15.13-5.378-23.384L126.145 79.58C129.016 66.873 140.118 58 153.147 58h231.886c10.172 0 19.206 5.3 24.166 14.18 4.962 8.876 4.743 19.348-.589 28.01L306.241 266.542c-2.273 3.69-.881 7.02-.175 8.28.704 1.26 2.809 4.191 7.144 4.191h88.078c10.65 0 20.177 5.941 24.86 15.507 4.685 9.565 3.537 20.734-2.993 29.148L145.112 681.913c-5.502 7.09-13.358 10.863-21.556 10.863Z"/>
    </mask>
    <path fill="#66FCF1" d="M153.147 77.497a8.14 8.14 0 0 0-7.983 6.38L77.708 382.364a8.145 8.145 0 0 0 1.591 6.913 8.14 8.14 0 0 0 6.39 3.074h69.7c8.755 0 16.803 4.005 22.082 10.988 5.279 6.984 6.939 15.822 4.55 24.243l-66.649 235.126c-1.707 6.024 2.769 8.821 4.181 9.534 1.411.715 6.317 2.658 10.156-2.287L407.753 311.71c2.824-3.638 1.56-7.238.885-8.616-.677-1.378-2.744-4.583-7.35-4.583H313.21c-10.17 0-19.205-5.3-24.165-14.178-4.963-8.879-4.742-19.351.588-28.011L392.002 89.97c2.273-3.69.881-7.02.178-8.28-.706-1.26-2.812-4.193-7.147-4.193H153.147Zm-29.591 615.279c-4.269 0-8.631-1.023-12.801-3.132-12.182-6.161-17.865-19.119-14.143-32.253l66.649-235.125a8.107 8.107 0 0 0-1.345-7.165 8.11 8.11 0 0 0-6.527-3.25h-69.7c-8.46 0-16.34-3.79-21.622-10.4-5.282-6.608-7.242-15.13-5.378-23.384L126.145 79.58C129.016 66.873 140.118 58 153.147 58h231.886c10.172 0 19.206 5.3 24.166 14.18 4.962 8.876 4.743 19.348-.589 28.01L306.241 266.542c-2.273 3.69-.881 7.02-.175 8.28.704 1.26 2.809 4.191 7.144 4.191h88.078c10.65 0 20.177 5.941 24.86 15.507 4.685 9.565 3.537 20.734-2.993 29.148L145.112 681.913c-5.502 7.09-13.358 10.863-21.556 10.863Z"/>
    <path fill="#66FCF1" d="M135.654 53.134h.015v57.187h-.015V53.134Zm9.51 30.742 55.78 12.606-55.78-12.606ZM77.708 382.365l55.78 12.606-.001.002-55.78-12.608Zm104.313 45.218-55.019-15.596.002-.008 55.017 15.604Zm-66.649 235.126-55.02-15.594v-.002l55.02 15.596Zm4.181 9.534L145.34 621.2l.034.017.033.017-25.854 51.009Zm10.156-2.287 45.176 35.063-.005.008-45.171-35.071Zm278.044-358.245-45.177-35.063.004-.004 45.173 35.067Zm.885-8.616 51.331-25.208.011.021.01.022-51.352 25.165Zm-119.593-18.761 49.917-27.904.004.006.003.006-49.924 27.892Zm.588-28.011 48.704 29.971-.001.001-48.703-29.972ZM392.002 89.97l-48.704-29.972.006-.01.007-.01 48.691 29.991Zm.178-8.28 49.893-27.947.024.043.024.044-49.941 27.86ZM110.755 689.644l-25.806 51.034-.004-.002 25.81-51.032Zm-14.143-32.253-55.02-15.592v-.004l55.02 15.596Zm66.649-235.125-55.019-15.596.004-.015.005-.015 55.01 15.626Zm-1.345-7.165-45.604 34.506-.019-.026-.019-.025 45.642-34.455Zm-97.85-13.65 44.671-35.705.004.005-44.674 35.7Zm-5.377-23.384L2.908 365.466v-.005l55.781 12.606ZM126.145 79.58l55.782 12.6-.001.006-55.781-12.606Zm283.054-7.4-49.919 27.9-.005-.01 49.924-27.892Zm-.589 28.01-48.704-29.971.002-.003 48.702 29.974ZM306.241 266.542l48.704 29.972-.007.01-.006.01-48.691-29.992Zm-.175 8.28 49.893-27.947.012.021.013.022-49.918 27.904Zm120.082 19.698-51.359 25.152-.003-.006 51.362-25.146Zm-2.993 29.148-45.177-35.063.001-.001 45.176 35.064ZM145.112 681.913 99.93 646.856l.005-.006 45.177 35.063Zm8.035-547.229c22.863 0 42.752-15.876 47.797-38.202l-111.56-25.21c6.742-29.837 33.197-50.962 63.763-50.962v114.374Zm47.797-38.202-67.456 298.489-111.56-25.212L89.382 71.27l111.561 25.212Zm-67.457 298.491a49.04 49.04 0 0 0-9.513-41.395l-89.35 71.4a65.33 65.33 0 0 1-12.696-55.221l111.559 25.216Zm-9.513-41.395a49.046 49.046 0 0 0-38.284-18.413v114.374a65.325 65.325 0 0 1-51.066-24.561l89.35-71.4ZM85.69 335.165h69.699v114.374h-69.7V335.165Zm69.699 0c26.679 0 51.613 12.408 67.701 33.69l-91.238 68.971c5.529 7.315 14.369 11.713 23.537 11.713V335.165Zm67.701 33.69c16.084 21.277 21.231 48.656 13.948 74.333l-110.034-31.209c-2.505 8.834-.678 18.537 4.848 25.847l91.238-68.971Zm13.951 74.324-66.65 235.126-110.038-31.192 66.649-235.126 110.039 31.192Zm-66.649 235.123c1.742-6.146 2.462-13.652.997-21.792a50.117 50.117 0 0 0-8.294-19.904c-6.561-9.345-14.419-13.721-17.755-15.406L93.765 723.285c-4.746-2.398-15.55-8.529-24.275-20.956-10.481-14.928-14.916-34.826-9.138-55.214l110.04 31.187Zm-24.985-57.068c-3.386-1.717-11.577-5.445-22.992-5.184a50.128 50.128 0 0 0-20.932 5.123c-7.417 3.644-13.03 8.669-16.946 13.713l90.343 70.141c-12.987 16.726-31.626 24.951-49.855 25.367-15.179.346-26.529-4.711-31.326-7.142l51.708-102.018Zm-60.875 13.659 278.044-358.245 90.354 70.126-278.045 358.245-90.353-70.126ZM362.58 276.644c-7.517 9.682-10.557 21.221-10.232 31.688a48.587 48.587 0 0 0 4.937 19.929L459.99 277.93c4.467 9.116 15.693 39.533-7.063 68.848l-90.347-70.134Zm-5.273 51.66a48.536 48.536 0 0 0 12.681 16.049c8.068 6.674 19.045 11.346 31.3 11.346V241.325c37.118 0 54.247 27.534 58.681 36.562l-102.662 50.417Zm43.981 27.395H313.21V241.325h88.078v114.374Zm-88.078 0c-30.882 0-59.019-16.5-74.089-43.474l99.848-55.783c-5.149-9.216-15.217-15.117-25.759-15.117v114.374Zm-74.082-43.461c-15.075-26.968-14.387-59.581 1.801-85.887l97.407 59.944c5.529-8.985 5.775-20.654.626-29.865l-99.834 55.808Zm1.8-85.886 102.37-166.354 97.408 59.943-102.369 166.353-97.409-59.942ZM343.311 59.978c-6.206 10.075-7.992 21.228-6.98 30.894a48.605 48.605 0 0 0 5.907 18.678l99.883-55.72c4.804 8.612 16.904 36.37-1.427 66.131l-97.383-59.983Zm-1.024 49.659a48.588 48.588 0 0 0 12.789 14.793c7.695 5.927 18.125 10.254 29.957 10.254V20.31c34.952 0 52.238 24.86 57.04 33.433l-99.786 55.894Zm42.746 25.047H153.147V20.31h231.886v114.374ZM123.556 749.963c-13.5 0-26.677-3.253-38.607-9.285l51.612-102.067c-3.591-1.816-8.043-3.022-13.005-3.022v114.374Zm-38.61-9.287c-36.604-18.513-54.542-59.4-43.355-98.877l110.041 31.183c1.638-5.779 1.487-12.914-1.54-19.816-3.026-6.902-8.171-11.844-13.527-14.553l-51.62 102.063Zm-43.353-98.881 66.649-235.125 110.038 31.192-66.649 235.125-110.038-31.192ZM108.25 406.64a49.079 49.079 0 0 0 8.061 42.967l91.208-69.012a65.296 65.296 0 0 1 10.752 57.298l-110.02-31.253Zm8.023 42.916a49.075 49.075 0 0 0 39.115 19.482V354.664a65.297 65.297 0 0 1 52.169 25.982l-91.284 68.91Zm39.115 19.482h-69.7V354.664h69.7v114.374Zm-69.7 0a84.729 84.729 0 0 1-66.297-31.886l89.349-71.401c-5.571-6.972-14.13-11.087-23.051-11.087v114.374Zm-66.293-31.881a84.73 84.73 0 0 1-16.488-71.691l111.563 25.203c1.965-8.698-.162-17.952-5.734-24.923l-89.341 71.411ZM2.909 365.461 70.365 66.974l111.561 25.212-67.456 298.487L2.909 365.461ZM70.364 66.979A84.717 84.717 0 0 1 153.147.813v114.374c13.693 0 25.759-9.635 28.78-23.006L70.364 66.979ZM153.147.813h231.886v114.374H153.147V.813Zm231.886 0c30.887 0 59.023 16.505 74.09 43.475l-99.848 55.783c5.147 9.213 15.214 15.116 25.758 15.116V.813Zm74.085 43.465c15.071 26.963 14.387 59.576-1.805 85.886l-97.405-59.948c-5.53 8.986-5.775 20.656-.628 29.865l99.838-55.803Zm-1.804 85.884L354.945 296.514l-97.408-59.943L359.906 70.219l97.408 59.943ZM354.932 296.534c6.206-10.075 7.994-21.232 6.979-30.908a48.638 48.638 0 0 0-5.952-18.751l-99.786 55.894c-4.868-8.691-16.955-36.458 1.376-66.219l97.383 59.984Zm1.052-49.616a48.632 48.632 0 0 0-12.814-14.836c-7.703-5.933-18.135-10.256-29.96-10.256V336.2c-34.946 0-52.239-24.847-57.061-33.475l99.835-55.807Zm-42.774-25.092h88.078V336.2H313.21V221.826Zm88.078 0c32.478 0 61.936 18.368 76.222 47.548l-102.724 50.292c4.92 10.048 15.324 16.534 26.502 16.534V221.826Zm76.219 47.541c14.288 29.175 10.739 63.706-9.176 89.365l-90.352-70.128c-6.854 8.831-8.108 21.025-3.19 31.068l102.718-50.305Zm-9.175 89.364L190.289 716.976 99.935 646.85l278.043-358.245 90.354 70.126ZM190.293 716.97c-16.005 20.628-40.34 32.993-66.737 32.993V635.589c-10.002 0-18.623 4.82-23.626 11.267l90.363 70.114Z" mask="url(#b)"/>
  </g>
  <defs>
    <filter id="a" width="485.374" height="749.15" x=".813" y=".813" color-interpolation-filters="sRGB" filterUnits="userSpaceOnUse">
      <feFlood flood-opacity="0" result="BackgroundImageFix"/>
      <feColorMatrix in="SourceAlpha" result="hardAlpha" values="0 0 0 0 0 0 0 0 0 0 0 0 0 0 0 0 0 0 127 0"/>
      <feOffset/>
      <feGaussianBlur stdDeviation="28.593"/>
      <feComposite in2="hardAlpha" operator="out"/>
      <feColorMatrix values="0 0 0 0 0.4 0 0 0 0 0.988235 0 0 0 0 0.945098 0 0 0 1 0"/>
      <feBlend in2="BackgroundImageFix" result="effect1_dropShadow_317_283"/>
      <feBlend in="SourceGraphic" in2="effect1_dropShadow_317_283" result="shape"/>
    </filter>
  </defs>
</svg>
